<svg xmlns="http://www.w3.org/2000/svg" viewBox="0 0 144.6 198.7" class="works--right-img works--ubikah-cosmonaute"><style>.cosmonaute-st0{fill:#e0e0e0}.cosmonaute-st1{fill:#efefef}.cosmonaute-st2{fill:#7ab8fc}.cosmonaute-st3{fill:none;stroke:#cd6676;stroke-width:3;stroke-miterlimit:10}.cosmonaute-st4{opacity:.1;fill:#fff;enable-background:new}.cosmonaute-st5{fill:#00a2e5}.cosmonaute-st6{fill:#e3227f}.cosmonaute-st7{fill:none;stroke:#d9dadb;stroke-miterlimit:10}.cosmonaute-st8,.cosmonaute-st9{opacity:.2;fill:#fff;enable-background:new}.cosmonaute-st9{fill:#264c6b}</style><g id="cos_face"><path id="bras_gauche" class="cosmonaute-st0 bras" d="M2.1 163.6v-56.2c0-7.3 6-13.3 13.3-13.3 7.3 0 13.3-1.1 13.3 6.2v63.3c0 7.3-6 13.3-13.3 13.3-7.3 0-13.3-6-13.3-13.3z"/><path id="bras_droit" class="cosmonaute-st0 bras" d="M142.6 163.6v-56.2c0-7.3-6-13.3-13.3-13.3-7.3 0-13.3-1.1-13.3 6.2v63.3c0 7.3 6 13.3 13.3 13.3 7.3 0 13.3-6 13.3-13.3z"/><path class="cosmonaute-st1 cosmonaute" d="M118.4 198.7c4.2-7.5 6.6-16.2 6.6-25.4V54.8c0-28.9-23.7-52.6-52.6-52.6-28.9 0-52.6 23.7-52.6 52.6v118.6c0 9.2 2.4 17.8 6.5 25.3h92.1z"/><circle id="tete" class="cosmonaute-st2" cx="72.4" cy="54.8" r="39.5"/><path id="trait_bras_gauche" class="cosmonaute-st3" d="M2.1 163.6h17.6"/><path id="trait_bras_droit" class="cosmonaute-st3" d="M142.6 163.6H125"/><path id="reflet_tête" class="cosmonaute-st4" d="M38.1 66.5C38.1 44.7 55.8 27 77.6 27c13.7 0 25.7 6.9 32.8 17.5-4.5-16.9-19.8-29.2-38-29.2-21.8 0-39.5 17.7-39.5 39.5 0 8.2 2.5 15.8 6.7 22.1-1-3.3-1.5-6.8-1.5-10.4z"/><path id="led_bleue" class="cosmonaute-st5" d="M98.6 121c-1.9 0-3.4-1.5-3.4-3.4s1.5-3.4 3.4-3.4 3.4 1.5 3.4 3.4c.1 1.8-1.5 3.4-3.4 3.4z"/><path id="led_rose" class="cosmonaute-st6" d="M88.1 121c-1.9 0-3.4-1.5-3.4-3.4s1.5-3.4 3.4-3.4 3.4 1.5 3.4 3.4c0 1.8-1.6 3.4-3.4 3.4z"/><path id="trait_corps" class="cosmonaute-st7" d="M19.7 94.1v82.1"/><path id="trait_corps_1_" class="cosmonaute-st7" d="M124.9 94.1v82.1"/><circle class="cosmonaute-st8" cx="84.4" cy="47.8" r="4.1"/><circle class="cosmonaute-st9" cx="84.4" cy="47.8" r="2.6"/><circle class="cosmonaute-st8" cx="60.4" cy="47.8" r="4.1"/><circle class="cosmonaute-st9" cx="60.4" cy="47.8" r="2.6"/><ellipse class="cosmonaute-st2 paupiere" cx="60.4" cy="42" rx="7.5" ry="3.9"/><ellipse class="cosmonaute-st2 paupiere" cx="84.4" cy="42" rx="7.5" ry="3.9"/></g></svg>