<svg width="66" height="36" viewBox="0 0 66 36" xmlns="http://www.w3.org/2000/svg"><title>icone velo</title><g fill="#FFF" fill-opacity=".1" fill-rule="evenodd"><path class="lineTwo" d="M4.062 24.142H.674A.675.675 0 0 1 0 23.465c0-.374.302-.677.674-.677h3.388c.373 0 .674.303.674.677 0 .375-.3.677-.674.677" data-svg-origin="-0.00004218749745632522 22.78757667541504" style="transform:matrix(1,0,0,1,1.89,0)"/><path class="lineThree" d="M6 27.543H2.13a.676.676 0 0 1-.675-.678c0-.373.302-.677.674-.677H6c.374 0 .674.304.674.677 0 .375-.3.678-.673.678" data-svg-origin="1.4548780918121338 26.188220977783203" style="transform:matrix(1,0,0,1,0,0)"/><path class="lineOne" d="M6 20.742H2.13a.675.675 0 0 1-.675-.677c0-.375.302-.677.674-.677H6c.374 0 .674.303.674.677 0 .375-.3.677-.673.677" data-svg-origin="1.4548780918121338 19.3875675201416" style="transform:matrix(1,0,0,1,0,0)"/><path d="M3.49 12.635c-1.094 0-1.98-.89-1.98-1.99s.886-1.99 1.98-1.99c1.096 0 1.982.89 1.982 1.99s-.886 1.99-1.98 1.99m3.353-1.99a3.367 3.367 0 0 0-2.682-3.3V2.828h1.13c.237 0 .43-.194.43-.432V.72a.43.43 0 0 0-.43-.43H1.687a.43.43 0 0 0-.43.43v1.675c0 .238.193.432.43.432h1.13v4.52a3.36 3.36 0 0 0-2.68 3.3 3.362 3.362 0 0 0 2.68 3.297v4.518h-1.13a.432.432 0 0 0-.43.432v1.674c0 .24.193.432.43.432h3.604a.43.43 0 0 0 .43-.432v-1.674a.431.431 0 0 0-.43-.432h-1.13v-4.518a3.365 3.365 0 0 0 2.683-3.298" data-svg-origin="3.490639016032219 10.644748330116272" style="transform-origin:0 0 0;transform:matrix(1,0,0,1,34,15)"/><path d="M53.702 34.41c-5.712 0-10.356-4.663-10.356-10.395 0-2.615.974-5 2.568-6.83 1.216 3.44 3.422 6.725 7.423 7.62a.673.673 0 0 0 .803-.513.68.68 0 0 0-.51-.81c-3.623-.81-5.57-4.056-6.625-7.383a10.284 10.284 0 0 1 6.697-2.48c5.71 0 10.352 4.663 10.352 10.397 0 5.73-4.643 10.394-10.352 10.394M28.626 4.2c-1.435.475-2.212.364-2.29.364-.008 0-.01 0-.008.002-.628-.32-.686-.647-.704-.758-.076-.426.214-.956.455-1.293 3 .57 5.945 1.01 6.558 1.102.19.11.247.185.256.185a.393.393 0 0 1-.09.142c-2.177-.57-3.866.116-4.178.257m3.24 19.817c0 .302-.02.6-.046.895l-10.04.01 4.66-10.045c3.23 1.76 5.425 5.2 5.425 9.14M21.51 34.41c-5.71 0-10.354-4.663-10.354-10.395 0-5.732 4.645-10.396 10.353-10.396 1.305 0 2.548.252 3.7.697l-5.1 10.99a.603.603 0 0 0 .043.613c.122.195.336.276.568.276h.002l10.91.008c-1.005 4.683-5.16 8.207-10.123 8.207M53.7 12.266c-2.667 0-5.123.91-7.09 2.425-.87-3.517-.84-6.74-.836-6.815l-.015-3.818 2.27.002c.345 0 .62-.268.66-.605.014-.03.038-.048.048-.077a2.884 2.884 0 0 1 3.73-1.633 2.896 2.896 0 0 1 .099 5.339.678.678 0 0 0 .54 1.241 4.2 4.2 0 0 0 2.242-2.34c.85-2.176-.22-4.644-2.388-5.5-2.106-.83-4.486.164-5.4 2.22h-2.48a.67.67 0 0 0-.674.679l.017 4.165L29.54 7.5l.008-2.13a5.331 5.331 0 0 1 3.224.01.664.664 0 0 0 .586-.102c.097-.066.943-.68.883-1.55-.025-.385-.235-.936-1.09-1.365a.752.752 0 0 0-.204-.067c-.035-.006-3.55-.516-7.008-1.185a.676.676 0 0 0-.615.198c-.13.137-1.264 1.376-1.03 2.73.087.507.406 1.22 1.532 1.78.098.034.88.26 2.37-.09L28.19 7.9l-2.408 5.186a11.617 11.617 0 0 0-4.273-.82c-6.452 0-11.702 5.27-11.702 11.75 0 6.478 5.25 11.748 11.7 11.748 5.71 0 10.47-4.125 11.495-9.56h1.18a3.411 3.411 0 0 1-.048-.56c0-.253.03-.497.08-.735H33.17c.023-.296.045-.592.045-.895 0-4.483-2.516-8.385-6.204-10.368l1.867-4.02 6.528 13.38c.353-.28.76-.493 1.205-.612L29.943 8.722 44.04 8.65l-5.957 13.68c.458.08.88.255 1.253.5l5.24-11.972c.135 1.372.39 3.083.872 4.834a11.74 11.74 0 0 0-3.45 8.323c0 6.48 5.25 11.748 11.704 11.748 6.45 0 11.703-5.27 11.703-11.748s-5.25-11.75-11.703-11.75"/></g></svg>