<svg width="66" height="36" viewBox="0 0 66 36" xmlns="http://www.w3.org/2000/svg"><title>icone velo</title><g fill="#FFF" fill-opacity=".1" fill-rule="evenodd"><path class="lineTwo" d="M4.062 24.142H.674A.676.676 0 0 1 0 23.465c0-.374.302-.677.674-.677h3.388c.373 0 .674.303.674.677a.676.676 0 0 1-.674.677" data-svg-origin="-0.00004218749745632522 22.78757667541504" style="transform:matrix(1,0,0,1,1.89,0)"/><path class="lineThree" d="M6.001 27.543H2.13a.675.675 0 0 1-.674-.678c0-.373.302-.677.674-.677H6c.374 0 .674.304.674.677 0 .375-.3.678-.673.678" data-svg-origin="1.4548780918121338 26.188220977783203" style="transform:matrix(1,0,0,1,0,0)"/><path class="lineOne" d="M6.001 20.742H2.13a.674.674 0 0 1-.674-.677c0-.375.302-.677.674-.677H6c.374 0 .674.303.674.677 0 .375-.3.677-.673.677" data-svg-origin="1.4548780918121338 19.3875675201416" style="transform:matrix(1,0,0,1,0,0)"/><path d="M3.49 12.635a1.986 1.986 0 0 1-1.981-1.99c0-1.099.887-1.99 1.982-1.99s1.981.891 1.981 1.99-.886 1.99-1.981 1.99m3.354-1.99a3.364 3.364 0 0 0-2.682-3.3V2.828h1.13c.237 0 .43-.194.43-.432V.72a.432.432 0 0 0-.43-.432H1.687a.432.432 0 0 0-.43.432v1.674c0 .238.193.432.43.432h1.13v4.519a3.363 3.363 0 0 0-2.681 3.3 3.363 3.363 0 0 0 2.681 3.298v4.518h-1.13a.432.432 0 0 0-.43.432v1.674c0 .24.193.432.43.432h3.604c.238 0 .431-.193.431-.432v-1.674a.432.432 0 0 0-.43-.432h-1.13v-4.518a3.364 3.364 0 0 0 2.682-3.298" data-svg-origin="3.490639016032219 10.644748330116272" style="transform-origin:0 0 0;transform:matrix(1,0,0,1,34,15)"/><path d="M53.702 34.411c-5.712 0-10.356-4.664-10.356-10.396 0-2.615.974-5.001 2.568-6.83 1.216 3.44 3.422 6.725 7.423 7.62a.674.674 0 0 0 .803-.513.678.678 0 0 0-.51-.809c-3.623-.81-5.571-4.057-6.625-7.384a10.284 10.284 0 0 1 6.697-2.48c5.709 0 10.352 4.664 10.352 10.398 0 5.73-4.643 10.394-10.352 10.394M28.626 4.201c-1.435.474-2.212.363-2.291.363-.007 0-.008 0-.007.002-.628-.32-.686-.647-.704-.758-.076-.426.214-.956.455-1.293 3.002.57 5.946 1.011 6.56 1.102.19.109.246.185.255.185a.398.398 0 0 1-.09.142c-2.177-.57-3.866.116-4.178.257m3.239 19.816c0 .302-.019.6-.045.895l-10.041.011 4.662-10.046a10.41 10.41 0 0 1 5.424 9.14M21.509 34.41c-5.71 0-10.353-4.664-10.353-10.396 0-5.732 4.645-10.396 10.353-10.396 1.306 0 2.55.253 3.701.698l-5.101 10.99a.607.607 0 0 0 .044.613c.122.195.336.276.568.276h.001l10.91.008c-1.005 4.683-5.16 8.207-10.123 8.207m32.193-22.146c-2.667 0-5.123.91-7.091 2.425-.868-3.517-.838-6.74-.835-6.815l-.015-3.818 2.268.002a.67.67 0 0 0 .66-.604c.015-.029.039-.048.05-.077a2.882 2.882 0 0 1 3.73-1.633 2.896 2.896 0 0 1 .098 5.338.678.678 0 0 0 .541 1.241 4.199 4.199 0 0 0 2.242-2.34c.85-2.176-.219-4.644-2.388-5.5-2.106-.83-4.486.164-5.399 2.221l-2.48-.002a.67.67 0 0 0-.477.198.684.684 0 0 0-.198.481l.017 4.165L29.54 7.5l.008-2.131a5.34 5.34 0 0 1 3.224.01.665.665 0 0 0 .586-.1c.097-.067.943-.68.883-1.552-.026-.384-.236-.935-1.09-1.364a.71.71 0 0 0-.205-.067c-.035-.006-3.55-.516-7.008-1.185a.67.67 0 0 0-.615.197c-.13.137-1.264 1.376-1.03 2.73.087.507.406 1.22 1.532 1.78.098.034.88.259 2.37-.091L28.19 7.9l-2.408 5.186a11.62 11.62 0 0 0-4.273-.821c-6.451 0-11.701 5.272-11.701 11.75 0 6.48 5.25 11.75 11.701 11.75 5.71 0 10.47-4.126 11.494-9.561h1.18a3.312 3.312 0 0 1 .033-1.295H33.17c.023-.295.045-.591.045-.894 0-4.483-2.516-8.385-6.204-10.368l1.866-4.021 6.528 13.38c.353-.279.76-.492 1.205-.611L29.943 8.722 44.04 8.65l-5.957 13.68c.458.081.88.255 1.253.501l5.24-11.973c.135 1.372.39 3.083.872 4.834a11.734 11.734 0 0 0-3.451 8.323c0 6.479 5.25 11.748 11.705 11.748 6.451 0 11.703-5.27 11.703-11.748s-5.25-11.75-11.703-11.75"/></g></svg>