<svg id="Calque_1" xmlns="http://www.w3.org/2000/svg" viewBox="0 0 280 160.7"><style>.st0{fill:#efefef}.st1{fill:#7ab8fc}.st2,.st3{fill:none;stroke:#efefef;stroke-width:3.9732;stroke-miterlimit:10}.st3{stroke-linecap:round}</style><path class="st0" d="M91.6 33.8V98c0 26.1 21.4 47.5 47.5 47.5s47.5-21.4 47.5-47.5V33.8h-95z"/><circle class="st1" cx="139.1" cy="89.7" r="25.8"/><circle class="st0" cx="152.3" cy="72.5" r="7.8"/><circle class="st0" cx="139.1" cy="89.7" r="6.3"/><path class="st2" d="M239.4 33.8H38.9M39 33.8c-6.9 0-12.5-5.6-12.5-12.5"/><path class="st3" d="M7.1 6.3h41.7M115.7 6.3h41.8"/><path class="st2" d="M239.4 33.8c6.9 0 12.5-5.6 12.5-12.5"/><path class="st3" d="M272.9 6.3h-41.7"/><path class="st2" d="M136.6 6.3v27.5M26.5 6.3v15.1M251.9 6.3v15.1"/><path class="st3" d="M111.4 136.6l-15.5 17.9M166.8 136.6l15.5 17.9"/></svg>